# This file uses centimeters as units for non-parametric coordinates.

v 60.018879 13.275161 -7.076097
v 72.950844 13.275161 -7.076097
v 60.018879 14.415495 -7.076097
v 72.950844 14.415495 -7.076097
v 60.018879 14.415495 -25.698130
v 72.950844 14.415495 -25.698130
v 60.018879 13.275161 -25.698130
v 72.950844 13.275161 -25.698130
v 60.767288 8.433334 -8.153808
v 72.202438 8.433334 -8.153808
v 60.767288 13.275161 -8.153808
v 72.202438 13.275161 -8.153808
v 60.767288 13.275161 -24.620420
v 72.202438 13.275161 -24.620420
v 60.767288 8.433334 -24.620420
v 72.202438 8.433334 -24.620420
v 70.479767 0.000000 -7.295855
v 72.730797 0.000000 -7.295855
v 70.479767 13.275161 -7.295855
v 72.730797 13.275161 -7.295855
v 70.479767 13.275161 -9.546885
v 72.730797 13.275161 -9.546885
v 70.479767 0.000000 -9.546885
v 72.730797 0.000000 -9.546885
v 70.479767 0.000000 -25.478373
v 72.730797 0.000000 -25.478373
v 70.479767 13.275161 -25.478373
v 72.730797 13.275161 -25.478373
v 70.479767 13.275161 -23.227343
v 72.730797 13.275161 -23.227343
v 70.479767 0.000000 -23.227343
v 72.730797 0.000000 -23.227343
v 62.489952 0.000000 -25.478373
v 60.238922 0.000000 -25.478373
v 62.489952 13.275161 -25.478373
v 60.238922 13.275161 -25.478373
v 62.489952 13.275161 -23.227343
v 60.238922 13.275161 -23.227343
v 62.489952 0.000000 -23.227343
v 60.238922 0.000000 -23.227343
v 62.489952 0.000000 -7.295855
v 60.238922 0.000000 -7.295855
v 62.489952 13.275161 -7.295855
v 60.238922 13.275161 -7.295855
v 62.489952 13.275161 -9.546885
v 60.238922 13.275161 -9.546885
v 62.489952 0.000000 -9.546885
v 60.238922 0.000000 -9.546885
vt 0.629139 0.325959
vt 0.628851 0.172502
vt 0.642170 0.172510
vt 0.642170 0.326172
vt 0.394445 0.326051
vt 0.394445 0.172389
vt 0.407803 0.172423
vt 0.408028 0.325929
vt 0.628812 0.005023
vt 0.628914 0.158860
vt 0.408317 0.339386
vt 0.629591 0.339386
vt 0.407641 0.158860
vt 0.407539 0.005023
vt 0.006657 0.767809
vt 0.274864 0.767809
vt 0.273810 0.880867
vt 0.005720 0.880867
vt 0.003087 0.383414
vt 0.002201 0.115688
vt 0.388251 0.115688
vt 0.389137 0.383414
vt 0.278901 0.885063
vt 0.546991 0.885063
vt 0.546983 0.998008
vt 0.278776 0.998008
vt 0.389180 0.496742
vt 0.389180 0.764949
vt 0.004154 0.763887
vt 0.004154 0.495679
vt 0.001927 0.001992
vt 0.387977 0.001992
vt 0.648537 0.110599
vt 0.648537 0.056831
vt 0.965625 0.056831
vt 0.965625 0.110599
vt 0.965625 0.164367
vt 0.965625 0.218135
vt 0.648537 0.218135
vt 0.648537 0.164367
vt 0.648537 0.003063
vt 0.965625 0.003064
vt 0.394445 0.603359
vt 0.394445 0.549591
vt 0.711533 0.549591
vt 0.711534 0.603359
vt 0.711533 0.442056
vt 0.711533 0.495824
vt 0.394445 0.495823
vt 0.394445 0.442055
vt 0.394445 0.657127
vt 0.711533 0.657127
vt 0.648537 0.439861
vt 0.648537 0.386094
vt 0.965625 0.386094
vt 0.965625 0.439861
vt 0.965626 0.278557
vt 0.965625 0.332325
vt 0.648537 0.332326
vt 0.648538 0.278559
vt 0.648537 0.224791
vt 0.965625 0.224789
vt 0.394446 0.717534
vt 0.394445 0.663651
vt 0.711533 0.663651
vt 0.711533 0.717534
vt 0.711534 0.771071
vt 0.711534 0.824954
vt 0.394446 0.824954
vt 0.394445 0.771071
vt 0.394446 0.878722
vt 0.711533 0.878722
vn 0.000000 0.000000 1.000000
vn 0.000000 0.000000 1.000000
vn 0.000000 0.000000 1.000000
vn 0.000000 0.000000 1.000000
vn 0.000000 1.000000 0.000000
vn 0.000000 1.000000 0.000000
vn 0.000000 1.000000 0.000000
vn 0.000000 1.000000 0.000000
vn 0.000000 0.000000 -1.000000
vn 0.000000 0.000000 -1.000000
vn 0.000000 0.000000 -1.000000
vn 0.000000 0.000000 -1.000000
vn 0.000000 -1.000000 0.000000
vn 0.000000 -1.000000 0.000000
vn 0.000000 -1.000000 0.000000
vn 0.000000 -1.000000 0.000000
vn 1.000000 0.000000 0.000000
vn 1.000000 0.000000 0.000000
vn 1.000000 0.000000 0.000000
vn 1.000000 0.000000 0.000000
vn -1.000000 0.000000 0.000000
vn -1.000000 0.000000 0.000000
vn -1.000000 0.000000 0.000000
vn -1.000000 0.000000 0.000000
vn 0.000000 0.000000 1.000000
vn 0.000000 0.000000 1.000000
vn 0.000000 0.000000 1.000000
vn 0.000000 0.000000 1.000000
vn 0.000000 1.000000 0.000000
vn 0.000000 1.000000 0.000000
vn 0.000000 1.000000 0.000000
vn 0.000000 1.000000 0.000000
vn 0.000000 0.000000 -1.000000
vn 0.000000 0.000000 -1.000000
vn 0.000000 0.000000 -1.000000
vn 0.000000 0.000000 -1.000000
vn 0.000000 -1.000000 0.000000
vn 0.000000 -1.000000 0.000000
vn 0.000000 -1.000000 0.000000
vn 0.000000 -1.000000 0.000000
vn 1.000000 0.000000 0.000000
vn 1.000000 0.000000 0.000000
vn 1.000000 0.000000 0.000000
vn 1.000000 0.000000 0.000000
vn -1.000000 0.000000 0.000000
vn -1.000000 0.000000 0.000000
vn -1.000000 0.000000 0.000000
vn -1.000000 0.000000 0.000000
vn 0.000000 0.000000 1.000000
vn 0.000000 0.000000 1.000000
vn 0.000000 0.000000 1.000000
vn 0.000000 0.000000 1.000000
vn 0.000000 0.000000 -1.000000
vn 0.000000 0.000000 -1.000000
vn 0.000000 0.000000 -1.000000
vn 0.000000 0.000000 -1.000000
vn 1.000000 0.000000 0.000000
vn 1.000000 0.000000 0.000000
vn 1.000000 0.000000 0.000000
vn 1.000000 0.000000 0.000000
vn -1.000000 0.000000 0.000000
vn -1.000000 0.000000 0.000000
vn -1.000000 0.000000 0.000000
vn -1.000000 0.000000 0.000000
vn 0.000000 0.000000 -1.000000
vn 0.000000 0.000000 -1.000000
vn 0.000000 0.000000 -1.000000
vn 0.000000 0.000000 -1.000000
vn 0.000000 0.000000 1.000000
vn 0.000000 0.000000 1.000000
vn 0.000000 0.000000 1.000000
vn 0.000000 0.000000 1.000000
vn 1.000000 0.000000 0.000000
vn 1.000000 0.000000 0.000000
vn 1.000000 0.000000 0.000000
vn 1.000000 0.000000 0.000000
vn -1.000000 0.000000 0.000000
vn -1.000000 0.000000 0.000000
vn -1.000000 0.000000 0.000000
vn -1.000000 0.000000 0.000000
vn 0.000000 0.000000 -1.000000
vn 0.000000 0.000000 -1.000000
vn 0.000000 0.000000 -1.000000
vn 0.000000 0.000000 -1.000000
vn 0.000000 0.000000 1.000000
vn 0.000000 0.000000 1.000000
vn 0.000000 0.000000 1.000000
vn 0.000000 0.000000 1.000000
vn -1.000000 0.000000 0.000000
vn -1.000000 0.000000 0.000000
vn -1.000000 0.000000 0.000000
vn -1.000000 0.000000 0.000000
vn 1.000000 0.000000 0.000000
vn 1.000000 0.000000 0.000000
vn 1.000000 0.000000 0.000000
vn 1.000000 0.000000 0.000000
vn 0.000000 0.000000 1.000000
vn 0.000000 0.000000 1.000000
vn 0.000000 0.000000 1.000000
vn 0.000000 0.000000 1.000000
vn 0.000000 0.000000 -1.000000
vn 0.000000 0.000000 -1.000000
vn 0.000000 0.000000 -1.000000
vn 0.000000 0.000000 -1.000000
vn -1.000000 0.000000 0.000000
vn -1.000000 0.000000 0.000000
vn -1.000000 0.000000 0.000000
vn -1.000000 0.000000 0.000000
vn 1.000000 0.000000 0.000000
vn 1.000000 0.000000 0.000000
vn 1.000000 0.000000 0.000000
vn 1.000000 0.000000 0.000000
f 1/1/1 2/2/2 3/4/3
f 3/4/3 2/2/2 4/3/4
f 3/9/5 4/10/6 5/14/7
f 5/14/7 4/10/6 6/13/8
f 5/5/9 6/6/10 7/8/11
f 7/8/11 6/6/10 8/7/12
f 7/8/13 8/7/14 1/1/15
f 1/1/15 8/7/14 2/2/16
f 2/2/17 8/7/18 4/10/19
f 4/10/19 8/7/18 6/13/20
f 7/8/21 1/1/22 5/11/23
f 5/11/23 1/1/22 3/12/24
f 9/15/25 10/16/26 11/18/27
f 11/18/27 10/16/26 12/17/28
f 11/19/29 12/20/30 13/22/31
f 13/22/31 12/20/30 14/21/32
f 13/23/33 14/24/34 15/26/35
f 15/26/35 14/24/34 16/25/36
f 15/27/37 16/28/38 9/30/39
f 9/30/39 16/28/38 10/29/40
f 10/31/41 16/32/42 12/20/43
f 12/20/43 16/32/42 14/21/44
f 15/27/45 9/30/46 13/22/47
f 13/22/47 9/30/46 11/19/48
f 17/33/49 18/34/50 19/36/51
f 19/36/51 18/34/50 20/35/52
f 21/37/53 22/38/54 23/40/55
f 23/40/55 22/38/54 24/39/56
f 18/34/57 24/41/58 20/35/59
f 20/35/59 24/41/58 22/42/60
f 23/40/61 17/33/62 21/37/63
f 21/37/63 17/33/62 19/36/64
f 25/43/65 27/46/66 26/44/67
f 26/44/67 27/46/66 28/45/68
f 29/47/69 31/50/70 30/48/71
f 30/48/71 31/50/70 32/49/72
f 26/44/73 28/45/74 32/49/75
f 32/49/75 28/45/74 30/48/76
f 31/51/77 29/52/78 25/43/79
f 25/43/79 29/52/78 27/46/80
f 33/53/81 34/54/82 35/56/83
f 35/56/83 34/54/82 36/55/84
f 37/57/85 38/58/86 39/60/87
f 39/60/87 38/58/86 40/59/88
f 34/54/89 40/59/90 36/55/91
f 36/55/91 40/59/90 38/58/92
f 39/60/93 33/61/94 37/57/95
f 37/57/95 33/61/94 35/62/96
f 41/63/97 43/66/98 42/64/99
f 42/64/99 43/66/98 44/65/100
f 45/67/101 47/70/102 46/68/103
f 46/68/103 47/70/102 48/69/104
f 42/71/105 44/72/106 48/69/107
f 48/69/107 44/72/106 46/68/108
f 47/70/109 45/67/110 41/63/111
f 41/63/111 45/67/110 43/66/112
