# This file uses centimeters as units for non-parametric coordinates.

v 60.359497 0.000000 14.610471
v 72.554649 0.000000 14.610471
v 60.359497 10.037596 14.610471
v 72.554649 10.037596 14.610471
v 60.359497 10.037596 -4.995459
v 72.554649 10.037596 -4.995459
v 60.359497 0.000000 -4.995459
v 72.554649 0.000000 -4.995459
v 61.530293 13.261461 14.610471
v 71.383842 13.261461 14.610471
v 71.383842 13.261461 -4.995459
v 61.530293 13.261461 -4.995459
v 64.514366 14.776274 14.610471
v 68.399773 14.776274 14.610471
v 68.399773 14.776274 -4.995459
v 64.514366 14.776274 -4.995459
v 66.457069 15.006580 14.610471
v 66.457069 15.006580 -4.995459
v 66.457069 13.261461 -4.995459
v 66.457077 10.037596 -4.995459
v 66.457077 0.000000 -4.995459
v 66.457077 0.000000 14.610471
v 66.457077 10.037596 14.610471
v 66.457069 13.261461 14.610471
v 62.657227 14.140360 14.610471
v 62.657227 14.140360 -4.995459
v 66.457069 14.140360 -4.995459
v 70.256905 14.140360 -4.995459
v 70.256905 14.140360 14.610471
v 66.457069 14.140360 14.610471
v 60.642746 11.649528 14.610471
v 60.642746 11.649528 -4.995459
v 66.457069 11.649528 -4.995459
v 72.271393 11.649528 -4.995459
v 72.271393 11.649528 14.610471
v 66.457069 11.649528 14.610471
vt 0.570180 0.399517
vt 0.679206 0.399517
vt 0.458732 0.997992
vt 0.395294 0.997996
vt 0.395224 0.606621
vt 0.458687 0.606617
vt 0.219624 0.399516
vt 0.219624 0.290491
vt 0.570181 0.290491
vt 0.110599 0.667836
vt 0.570181 0.181466
vt 0.219624 0.181465
vt 0.219625 0.001992
vt 0.570181 0.001992
vt 0.220622 0.998008
vt 0.220632 0.606633
vt 0.241855 0.606633
vt 0.241851 0.998007
vt 0.569896 0.606609
vt 0.569886 0.997984
vt 0.548662 0.997984
vt 0.548667 0.606610
vt 0.268431 0.998006
vt 0.268426 0.606631
vt 0.679206 0.578990
vt 0.570180 0.578990
vt 0.747147 0.652348
vt 0.219624 0.578990
vt 0.767297 0.636633
vt 0.110599 0.578990
vt 0.110599 0.399516
vt 0.291046 0.606629
vt 0.291063 0.998003
vt 0.145335 0.663718
vt 0.522087 0.606611
vt 0.522092 0.997986
vt 0.679206 0.607812
vt 0.499471 0.997988
vt 0.499455 0.606614
vt 0.575245 0.607812
vt 0.331830 0.998000
vt 0.331786 0.606625
vt 0.214560 0.607811
vt 0.644470 0.663718
vt 0.679206 0.667836
vt 0.075863 0.663718
vt 0.713941 0.663718
vt 0.110599 0.607811
vt 0.591114 0.636633
vt 0.679206 0.636633
vt 0.679206 0.652348
vt 0.611264 0.652348
vt 0.110599 0.636633
vt 0.198690 0.636633
vt 0.178540 0.652348
vt 0.110599 0.652348
vt 0.022507 0.636633
vt 0.042657 0.652348
vt 0.001573 0.578990
vt 0.006638 0.607811
vt 0.001573 0.399516
vt 0.788231 0.399517
vt 0.788231 0.578990
vt 0.783167 0.607812
vn 0.000000 0.000000 1.000000
vn 0.000000 0.000000 1.000000
vn 0.000000 0.000000 1.000000
vn 0.000000 0.000000 1.000000
vn -0.220990 0.975276 0.000000
vn 0.000000 1.000000 0.000000
vn -0.220990 0.975276 0.000000
vn 0.000000 1.000000 0.000000
vn 0.000000 0.000000 -1.000000
vn 0.000000 0.000000 -1.000000
vn 0.000000 0.000000 -1.000000
vn 0.000000 0.000000 -1.000000
vn 0.000000 -1.000000 0.000000
vn 0.000000 -1.000000 0.000000
vn 0.000000 -1.000000 0.000000
vn 0.000000 -1.000000 0.000000
vn 1.000000 0.000000 0.000000
vn 1.000000 0.000000 0.000000
vn 1.000000 0.000000 0.000000
vn 1.000000 0.000000 0.000000
vn -1.000000 0.000000 0.000000
vn -1.000000 0.000000 0.000000
vn -1.000000 0.000000 0.000000
vn -1.000000 0.000000 0.000000
vn 0.000000 0.000000 1.000000
vn 0.000000 0.000000 1.000000
vn 0.000000 0.000000 1.000000
vn 0.000000 0.000000 1.000000
vn 0.984909 0.173072 0.000000
vn 0.984909 0.173072 0.000000
vn 0.942264 0.334871 0.000000
vn 0.942264 0.334871 0.000000
vn 0.000000 0.000000 -1.000000
vn 0.000000 0.000000 -1.000000
vn 0.000000 0.000000 -1.000000
vn 0.000000 0.000000 -1.000000
vn -0.984910 0.173068 0.000000
vn -0.984910 0.173068 0.000000
vn -0.942265 0.334868 0.000000
vn -0.942265 0.334868 0.000000
vn 0.000000 0.000000 1.000000
vn 0.000000 0.000000 1.000000
vn 0.000000 0.000000 1.000000
vn 0.000000 0.000000 1.000000
vn 0.756169 0.654376 0.000000
vn 0.756169 0.654376 0.000000
vn 0.471716 0.881751 0.000000
vn 0.471716 0.881751 0.000000
vn 0.000000 0.000000 -1.000000
vn 0.000000 0.000000 -1.000000
vn 0.000000 0.000000 -1.000000
vn 0.000000 0.000000 -1.000000
vn -0.756170 0.654375 0.000000
vn -0.756170 0.654375 0.000000
vn -0.471716 0.881751 0.000000
vn -0.471716 0.881751 0.000000
vn 0.000000 1.000000 0.000000
vn 0.220990 0.975276 0.000000
vn 0.000000 1.000000 0.000000
vn 0.220990 0.975276 0.000000
vn 0.000000 0.000000 -1.000000
vn 0.000000 0.000000 -1.000000
vn 0.000000 0.000000 -1.000000
vn 0.000000 0.000000 -1.000000
vn 0.000000 0.000000 -1.000000
vn 0.000000 0.000000 -1.000000
vn 0.000000 -1.000000 0.000000
vn 0.000000 -1.000000 0.000000
vn 0.000000 0.000000 1.000000
vn 0.000000 0.000000 1.000000
vn 0.000000 0.000000 1.000000
vn 0.000000 0.000000 1.000000
vn 0.000000 0.000000 1.000000
vn 0.000000 0.000000 1.000000
vn -0.471716 0.881751 0.000000
vn -0.471716 0.881751 0.000000
vn -0.220990 0.975276 0.000000
vn -0.220990 0.975276 0.000000
vn 0.000000 0.000000 -1.000000
vn 0.000000 0.000000 -1.000000
vn 0.000000 0.000000 -1.000000
vn 0.471716 0.881751 0.000000
vn 0.471716 0.881751 0.000000
vn 0.220990 0.975276 0.000000
vn 0.220990 0.975276 0.000000
vn 0.000000 0.000000 1.000000
vn 0.000000 0.000000 1.000000
vn 0.000000 0.000000 1.000000
vn -0.942265 0.334868 0.000000
vn -0.942265 0.334868 0.000000
vn -0.756170 0.654375 0.000000
vn -0.756170 0.654375 0.000000
vn 0.942264 0.334871 0.000000
vn 0.942264 0.334871 0.000000
vn 0.756169 0.654376 0.000000
vn 0.756169 0.654376 0.000000
f 1/1/1 22/2/2 3/26/3
f 3/26/3 22/2/2 23/25/4
f 13/3/5 17/4/6 16/6/7
f 16/6/7 17/4/6 18/5/8
f 5/28/9 20/30/10 7/7/11
f 7/7/11 20/30/10 21/31/12
f 7/7/13 21/8/14 1/1/15
f 1/1/15 21/8/14 22/9/16
f 2/11/17 8/12/18 4/14/19
f 4/14/19 8/12/18 6/13/20
f 7/7/21 1/1/22 5/28/23
f 5/28/23 1/1/22 3/26/24
f 3/26/25 23/25/26 31/40/27
f 31/40/27 23/25/26 36/37/28
f 4/15/29 6/16/30 35/18/31
f 35/18/31 6/16/30 34/17/32
f 5/28/33 32/43/34 20/30/35
f 20/30/35 32/43/34 33/48/36
f 5/19/37 3/20/38 32/22/39
f 32/22/39 3/20/38 31/21/40
f 9/49/41 24/50/42 25/52/43
f 25/52/43 24/50/42 30/51/44
f 10/23/45 11/24/46 29/33/47
f 29/33/47 11/24/46 28/32/48
f 12/54/49 26/55/50 19/53/51
f 19/53/51 26/55/50 27/56/52
f 12/35/53 9/36/54 26/39/55
f 26/39/55 9/36/54 25/38/56
f 17/4/57 14/41/58 18/5/59
f 18/5/59 14/41/58 15/42/60
f 11/57/61 19/53/51 28/58/62
f 28/58/62 19/53/51 27/56/52
f 6/59/63 20/30/35 34/60/64
f 34/60/64 20/30/35 33/48/36
f 21/31/12 20/30/10 8/61/65
f 8/61/65 20/30/10 6/59/66
f 22/9/16 21/8/14 2/11/67
f 2/11/67 21/8/14 8/12/68
f 23/25/4 22/2/2 4/63/69
f 4/63/69 22/2/2 2/62/70
f 36/37/28 23/25/26 35/64/71
f 35/64/71 23/25/26 4/63/72
f 30/51/44 24/50/42 29/27/73
f 29/27/73 24/50/42 10/29/74
f 26/39/75 25/38/76 16/6/77
f 16/6/77 25/38/76 13/3/78
f 26/55/50 16/34/79 27/56/52
f 27/56/52 16/34/79 18/10/80
f 28/58/62 27/56/52 15/46/81
f 15/46/81 27/56/52 18/10/80
f 29/33/82 28/32/83 14/41/84
f 14/41/84 28/32/83 15/42/85
f 17/45/86 30/51/44 14/47/87
f 14/47/87 30/51/44 29/27/73
f 25/52/43 30/51/44 13/44/88
f 13/44/88 30/51/44 17/45/86
f 32/22/89 31/21/90 12/35/91
f 12/35/91 31/21/90 9/36/92
f 32/43/34 12/54/49 33/48/36
f 33/48/36 12/54/49 19/53/51
f 34/60/64 33/48/36 11/57/61
f 11/57/61 33/48/36 19/53/51
f 35/18/93 34/17/94 10/23/95
f 10/23/95 34/17/94 11/24/96
f 24/50/42 36/37/28 10/29/74
f 10/29/74 36/37/28 35/64/71
f 31/40/27 36/37/28 9/49/41
f 9/49/41 36/37/28 24/50/42
