# This file uses centimeters as units for non-parametric coordinates.

v -0.227882 3.624634 0.227882
v 0.227882 3.624634 0.227882
v -0.227882 4.080398 0.227882
v 0.227882 4.080398 0.227882
v -0.227882 4.080398 -0.227882
v 0.227882 4.080398 -0.227882
v -0.227882 3.624634 -0.227882
v 0.227882 3.624634 -0.227882
v -0.227882 4.281189 0.227882
v 0.227882 4.281189 0.227882
v -0.376296 5.665069 0.376296
v 0.376296 5.665069 0.376296
v -0.376296 5.665069 -0.376296
v 0.376296 5.665069 -0.376296
v -0.227882 4.281189 -0.227882
v 0.227882 4.281189 -0.227882
vt 0.545018 0.499368
vt 0.706397 0.499368
vt 0.711478 0.500055
vt 0.872857 0.500055
vt 0.872857 0.661435
vt 0.711478 0.661435
vt 0.872857 0.829722
vt 0.711478 0.829722
vt 0.711478 0.668343
vt 0.872857 0.668343
vt 0.274294 0.771921
vt 0.435673 0.771921
vt 0.435673 0.933300
vt 0.274294 0.933300
vt 0.706397 0.660747
vt 0.545018 0.660747
vt 0.274294 0.498722
vt 0.540775 0.498722
vt 0.540775 0.765204
vt 0.274294 0.765204
vt 0.768591 0.998008
vt 0.607212 0.998008
vt 0.607212 0.836629
vt 0.768591 0.836629
vt 0.440752 0.832283
vt 0.602131 0.832283
vt 0.602131 0.993662
vt 0.440752 0.993662
vt 0.595740 0.001992
vt 0.757119 0.001992
vt 0.809670 0.492004
vt 0.543189 0.492004
vt 0.054293 0.497710
vt 0.215673 0.497710
vt 0.268224 0.987722
vt 0.001742 0.987722
vt 0.706397 0.829034
vt 0.545018 0.829034
vt 0.545018 0.667655
vt 0.706397 0.667655
vt 0.054293 0.001992
vt 0.215673 0.001992
vt 0.268224 0.492004
vt 0.001742 0.492004
vt 0.540775 0.492004
vt 0.274294 0.492004
vt 0.326845 0.001992
vt 0.488224 0.001992
vn 0.000000 0.000000 1.000000
vn 0.000000 0.000000 1.000000
vn 0.000000 0.000000 1.000000
vn 0.000000 0.000000 1.000000
vn 0.000000 1.000000 0.000000
vn 0.000000 1.000000 0.000000
vn 0.000000 1.000000 0.000000
vn 0.000000 1.000000 0.000000
vn 0.000000 0.000000 -1.000000
vn 0.000000 0.000000 -1.000000
vn 0.000000 0.000000 -1.000000
vn 0.000000 0.000000 -1.000000
vn 0.000000 -1.000000 0.000000
vn 0.000000 -1.000000 0.000000
vn 0.000000 -1.000000 0.000000
vn 0.000000 -1.000000 0.000000
vn 1.000000 0.000000 0.000000
vn 1.000000 0.000000 0.000000
vn 1.000000 0.000000 0.000000
vn 1.000000 0.000000 0.000000
vn -1.000000 0.000000 0.000000
vn -1.000000 0.000000 0.000000
vn -1.000000 0.000000 0.000000
vn -1.000000 0.000000 0.000000
vn 0.000000 -0.106633 0.994298
vn 0.000000 -0.106633 0.994298
vn 0.000000 -0.106633 0.994298
vn 0.000000 -0.106633 0.994298
vn 0.000000 1.000000 0.000000
vn 0.000000 1.000000 0.000000
vn 0.000000 1.000000 0.000000
vn 0.000000 1.000000 0.000000
vn 0.000000 -0.106633 -0.994298
vn 0.000000 -0.106633 -0.994298
vn 0.000000 -0.106633 -0.994298
vn 0.000000 -0.106633 -0.994299
vn 0.000000 -1.000000 0.000000
vn 0.000000 -1.000000 0.000000
vn 0.000000 -1.000000 0.000000
vn 0.000000 -1.000000 0.000000
vn 0.994298 -0.106633 0.000000
vn 0.994298 -0.106633 0.000000
vn 0.994298 -0.106633 0.000000
vn 0.994299 -0.106633 0.000000
vn -0.994298 -0.106633 0.000000
vn -0.994298 -0.106633 0.000000
vn -0.994298 -0.106633 0.000000
vn -0.994299 -0.106633 0.000000
f 1/1/1 2/2/2 3/16/3
f 3/16/3 2/2/2 4/15/4
f 3/3/5 4/4/6 5/6/7
f 5/6/7 4/4/6 6/5/8
f 5/37/9 6/38/10 7/40/11
f 7/40/11 6/38/10 8/39/12
f 7/7/13 8/8/14 1/10/15
f 1/10/15 8/8/14 2/9/16
f 2/11/17 8/12/18 4/14/19
f 4/14/19 8/12/18 6/13/20
f 7/25/21 1/26/22 5/28/23
f 5/28/23 1/26/22 3/27/24
f 9/41/25 10/42/26 11/44/27
f 11/44/27 10/42/26 12/43/28
f 11/17/29 12/18/30 13/20/31
f 13/20/31 12/18/30 14/19/32
f 13/45/33 14/46/34 15/48/35
f 15/48/35 14/46/34 16/47/36
f 15/21/37 16/22/38 9/24/39
f 9/24/39 16/22/38 10/23/40
f 10/29/41 16/30/42 12/32/43
f 12/32/43 16/30/42 14/31/44
f 15/33/45 9/34/46 13/36/47
f 13/36/47 9/34/46 11/35/48
