# This file uses centimeters as units for non-parametric coordinates.

v -0.318912 4.284925 0.251458
v 0.318912 4.284925 0.251458
v -0.444664 5.725229 0.350612
v 0.444664 5.725229 0.350612
v -0.444664 5.725229 -0.350612
v 0.444664 5.725229 -0.350612
v -0.318912 4.284925 -0.251458
v 0.318912 4.284925 -0.251458
v -0.318912 3.532902 0.251458
v 0.318912 3.532902 0.251458
v -0.318912 4.160687 0.251458
v 0.318912 4.160687 0.251458
v -0.318912 4.160687 -0.251458
v 0.318912 4.160687 -0.251458
v -0.318912 3.532902 -0.251458
v 0.318912 3.532902 -0.251458
vt 0.375000 0.000000
vt 0.625000 0.000000
vt 0.375000 0.250000
vt 0.625000 0.250000
vt 0.375000 0.500000
vt 0.625000 0.500000
vt 0.375000 0.750000
vt 0.625000 0.750000
vt 0.375000 1.000000
vt 0.625000 1.000000
vt 0.875000 0.000000
vt 0.875000 0.250000
vt 0.125000 0.000000
vt 0.125000 0.250000
vt 0.375000 0.000000
vt 0.625000 0.000000
vt 0.625000 0.250000
vt 0.375000 0.250000
vt 0.625000 0.500000
vt 0.375000 0.500000
vt 0.625000 0.750000
vt 0.375000 0.750000
vt 0.625000 1.000000
vt 0.375000 1.000000
vt 0.875000 0.000000
vt 0.875000 0.250000
vt 0.125000 0.000000
vt 0.125000 0.250000
vn 0.000000 -0.068680 0.997639
vn 0.000000 -0.068680 0.997639
vn 0.000000 -0.068680 0.997639
vn 0.000000 -0.068680 0.997639
vn 0.000000 1.000000 0.000000
vn 0.000000 1.000000 0.000000
vn 0.000000 1.000000 0.000000
vn 0.000000 1.000000 0.000000
vn 0.000000 -0.068680 -0.997639
vn 0.000000 -0.068680 -0.997639
vn 0.000000 -0.068680 -0.997639
vn 0.000000 -0.068680 -0.997639
vn 0.000000 -1.000000 0.000000
vn 0.000000 -1.000000 0.000000
vn 0.000000 -1.000000 0.000000
vn 0.000000 -1.000000 0.000000
vn 0.996210 -0.086979 0.000000
vn 0.996210 -0.086979 0.000000
vn 0.996210 -0.086979 0.000000
vn 0.996210 -0.086979 0.000000
vn -0.996210 -0.086979 0.000000
vn -0.996210 -0.086979 0.000000
vn -0.996210 -0.086979 0.000000
vn -0.996210 -0.086979 0.000000
vn 0.000000 0.000000 1.000000
vn 0.000000 0.000000 1.000000
vn 0.000000 0.000000 1.000000
vn 0.000000 0.000000 1.000000
vn 0.000000 1.000000 0.000000
vn 0.000000 1.000000 0.000000
vn 0.000000 1.000000 0.000000
vn 0.000000 1.000000 0.000000
vn 0.000000 0.000000 -1.000000
vn 0.000000 0.000000 -1.000000
vn 0.000000 0.000000 -1.000000
vn 0.000000 0.000000 -1.000000
vn 0.000000 -1.000000 0.000000
vn 0.000000 -1.000000 0.000000
vn 0.000000 -1.000000 0.000000
vn 0.000000 -1.000000 0.000000
vn 1.000000 0.000000 0.000000
vn 1.000000 0.000000 0.000000
vn 1.000000 0.000000 0.000000
vn 1.000000 0.000000 0.000000
vn -1.000000 0.000000 0.000000
vn -1.000000 0.000000 0.000000
vn -1.000000 0.000000 0.000000
vn -1.000000 0.000000 0.000000
f 1/1/1 2/2/2 3/3/3
f 3/3/3 2/2/2 4/4/4
f 3/3/5 4/4/6 5/5/7
f 5/5/7 4/4/6 6/6/8
f 5/5/9 6/6/10 7/7/11
f 7/7/11 6/6/10 8/8/12
f 7/7/13 8/8/14 1/9/15
f 1/9/15 8/8/14 2/10/16
f 2/2/17 8/11/18 4/4/19
f 4/4/19 8/11/18 6/12/20
f 7/13/21 1/1/22 5/14/23
f 5/14/23 1/1/22 3/3/24
f 9/15/25 10/16/26 11/18/27
f 11/18/27 10/16/26 12/17/28
f 11/18/29 12/17/30 13/20/31
f 13/20/31 12/17/30 14/19/32
f 13/20/33 14/19/34 15/22/35
f 15/22/35 14/19/34 16/21/36
f 15/22/37 16/21/38 9/24/39
f 9/24/39 16/21/38 10/23/40
f 10/16/41 16/25/42 12/17/43
f 12/17/43 16/25/42 14/26/44
f 15/27/45 9/15/46 13/28/47
f 13/28/47 9/15/46 11/18/48
v -0.318912 4.284925 0.251458
v 0.318912 4.284925 0.251458
v -0.444664 5.725229 0.350612
v 0.444664 5.725229 0.350612
v -0.444664 5.725229 -0.350612
v 0.444664 5.725229 -0.350612
v -0.318912 4.284925 -0.251458
v 0.318912 4.284925 -0.251458
v -0.318912 3.532902 0.251458
v 0.318912 3.532902 0.251458
v -0.318912 4.160687 0.251458
v 0.318912 4.160687 0.251458
v -0.318912 4.160687 -0.251458
v 0.318912 4.160687 -0.251458
v -0.318912 3.532902 -0.251458
v 0.318912 3.532902 -0.251458
vt 0.375000 0.000000
vt 0.625000 0.000000
vt 0.375000 0.250000
vt 0.625000 0.250000
vt 0.375000 0.500000
vt 0.625000 0.500000
vt 0.375000 0.750000
vt 0.625000 0.750000
vt 0.375000 1.000000
vt 0.625000 1.000000
vt 0.875000 0.000000
vt 0.875000 0.250000
vt 0.125000 0.000000
vt 0.125000 0.250000
vt 0.375000 0.000000
vt 0.625000 0.000000
vt 0.625000 0.250000
vt 0.375000 0.250000
vt 0.625000 0.500000
vt 0.375000 0.500000
vt 0.625000 0.750000
vt 0.375000 0.750000
vt 0.625000 1.000000
vt 0.375000 1.000000
vt 0.875000 0.000000
vt 0.875000 0.250000
vt 0.125000 0.000000
vt 0.125000 0.250000
vn 0.000000 -0.068680 0.997639
vn 0.000000 -0.068680 0.997639
vn 0.000000 -0.068680 0.997639
vn 0.000000 -0.068680 0.997639
vn 0.000000 1.000000 0.000000
vn 0.000000 1.000000 0.000000
vn 0.000000 1.000000 0.000000
vn 0.000000 1.000000 0.000000
vn 0.000000 -0.068680 -0.997639
vn 0.000000 -0.068680 -0.997639
vn 0.000000 -0.068680 -0.997639
vn 0.000000 -0.068680 -0.997639
vn 0.000000 -1.000000 0.000000
vn 0.000000 -1.000000 0.000000
vn 0.000000 -1.000000 0.000000
vn 0.000000 -1.000000 0.000000
vn 0.996210 -0.086979 0.000000
vn 0.996210 -0.086979 0.000000
vn 0.996210 -0.086979 0.000000
vn 0.996210 -0.086979 0.000000
vn -0.996210 -0.086979 0.000000
vn -0.996210 -0.086979 0.000000
vn -0.996210 -0.086979 0.000000
vn -0.996210 -0.086979 0.000000
vn 0.000000 0.000000 1.000000
vn 0.000000 0.000000 1.000000
vn 0.000000 0.000000 1.000000
vn 0.000000 0.000000 1.000000
vn 0.000000 1.000000 0.000000
vn 0.000000 1.000000 0.000000
vn 0.000000 1.000000 0.000000
vn 0.000000 1.000000 0.000000
vn 0.000000 0.000000 -1.000000
vn 0.000000 0.000000 -1.000000
vn 0.000000 0.000000 -1.000000
vn 0.000000 0.000000 -1.000000
vn 0.000000 -1.000000 0.000000
vn 0.000000 -1.000000 0.000000
vn 0.000000 -1.000000 0.000000
vn 0.000000 -1.000000 0.000000
vn 1.000000 0.000000 0.000000
vn 1.000000 0.000000 0.000000
vn 1.000000 0.000000 0.000000
vn 1.000000 0.000000 0.000000
vn -1.000000 0.000000 0.000000
vn -1.000000 0.000000 0.000000
vn -1.000000 0.000000 0.000000
vn -1.000000 0.000000 0.000000
f 17/29/49 18/30/50 19/31/51
f 19/31/51 18/30/50 20/32/52
f 19/31/53 20/32/54 21/33/55
f 21/33/55 20/32/54 22/34/56
f 21/33/57 22/34/58 23/35/59
f 23/35/59 22/34/58 24/36/60
f 23/35/61 24/36/62 17/37/63
f 17/37/63 24/36/62 18/38/64
f 18/30/65 24/39/66 20/32/67
f 20/32/67 24/39/66 22/40/68
f 23/41/69 17/29/70 21/42/71
f 21/42/71 17/29/70 19/31/72
f 25/43/73 26/44/74 27/46/75
f 27/46/75 26/44/74 28/45/76
f 27/46/77 28/45/78 29/48/79
f 29/48/79 28/45/78 30/47/80
f 29/48/81 30/47/82 31/50/83
f 31/50/83 30/47/82 32/49/84
f 31/50/85 32/49/86 25/52/87
f 25/52/87 32/49/86 26/51/88
f 26/44/89 32/53/90 28/45/91
f 28/45/91 32/53/90 30/54/92
f 31/55/93 25/43/94 29/56/95
f 29/56/95 25/43/94 27/46/96
