# This file uses centimeters as units for non-parametric coordinates.

v 27.922489 23.000378 68.253571
v 27.922489 23.000378 43.253571
v 27.922489 24.000378 68.253571
v 27.922489 24.000378 43.253571
v -22.077511 24.000378 68.253571
v -22.077511 24.000378 43.253571
v -22.077511 23.000378 68.253571
v -22.077511 23.000378 43.253571
v 25.896168 0.000000 66.753571
v 25.896168 0.000000 45.334648
v 25.896168 23.000380 66.753571
v 25.896168 23.000380 45.334648
v 9.090693 23.000380 66.753571
v 9.090693 23.000380 45.334648
v 9.090693 0.000000 66.753571
v 9.090693 0.000000 45.334648
v -19.358114 0.000000 66.753571
v -19.358114 0.000000 44.708435
v -19.358114 23.000380 66.753571
v -19.358114 23.000380 44.708435
v -20.287462 23.000380 66.753571
v -20.287462 23.000380 44.708427
v -20.287462 0.000000 66.753571
v -20.287462 0.000000 44.708427
v 23.790710 2.834903 45.334648
v 23.790710 2.834903 44.419357
v 23.790710 12.935617 45.334648
v 23.790710 12.935617 44.419357
v 11.354972 12.935617 45.334648
v 11.354972 12.935617 44.419357
v 11.354972 2.834903 45.334648
v 11.354972 2.834903 44.419357
v 23.790710 15.074101 45.334648
v 23.790710 15.074101 44.419357
v 23.790710 21.471220 45.334648
v 23.790710 21.471220 44.419357
v 11.354972 21.471220 45.334648
v 11.354972 21.471220 44.419357
v 11.354972 15.074101 45.334648
v 11.354972 15.074101 44.419357
v 20.065296 17.647823 44.419357
v 20.065296 17.647823 43.419357
v 20.065296 18.647823 44.419357
v 20.065296 18.647823 43.419357
v 15.203625 18.647823 44.419353
v 15.203625 18.647823 43.419357
v 15.203625 17.647823 44.419353
v 15.203625 17.647823 43.419357
v 20.065296 10.381542 44.419357
v 20.065296 10.381542 43.419357
v 20.065296 11.381542 44.419357
v 20.065296 11.381542 43.419357
v 15.203625 11.381542 44.419353
v 15.203625 11.381542 43.419357
v 15.203625 10.381542 44.419353
v 15.203625 10.381542 43.419357
vt 0.255559 0.340801
vt 0.255558 0.015764
vt 0.268560 0.015764
vt 0.268560 0.340801
vt 0.918635 0.340801
vt 0.918635 0.015764
vt 0.931637 0.015764
vt 0.931636 0.340801
vt 0.905634 0.685307
vt 0.905634 0.360269
vt 0.268560 0.002762
vt 0.918635 0.002762
vt 0.255558 0.360269
vt 0.268560 0.353803
vt 0.918635 0.353803
vt 0.255558 0.685307
vt 0.186837 0.691848
vt 0.422426 0.691848
vt 0.422427 0.944832
vt 0.186838 0.944832
vt 0.847004 0.944833
vt 0.611415 0.944833
vt 0.611415 0.691849
vt 0.847004 0.691849
vt 0.426570 0.691849
vt 0.426570 0.944833
vt 0.001992 0.691848
vt 0.001992 0.944832
vt 0.248429 0.001988
vt 0.248428 0.229016
vt 0.011563 0.229016
vt 0.011563 0.001988
vt 0.001992 0.465615
vt 0.001992 0.238587
vt 0.011563 0.238587
vt 0.011563 0.465615
vt 0.248428 0.238587
vt 0.248428 0.465615
vt 0.248428 0.475186
vt 0.011563 0.475186
vt 0.851149 0.700163
vt 0.860572 0.700163
vt 0.860571 0.804140
vt 0.851149 0.804140
vt 0.860571 0.813563
vt 0.988586 0.804140
vt 0.988586 0.813563
vt 0.998008 0.804140
vt 0.988586 0.700163
vt 0.998008 0.700163
vt 0.988586 0.690741
vt 0.860571 0.690741
vt 0.851149 0.830557
vt 0.859792 0.830557
vt 0.859792 0.890964
vt 0.851149 0.890964
vt 0.859792 0.899607
vt 0.977221 0.890964
vt 0.977221 0.899607
vt 0.985864 0.890964
vt 0.977221 0.830557
vt 0.985864 0.830557
vt 0.977221 0.821914
vt 0.859792 0.821914
vt 0.851149 0.922708
vt 0.867603 0.922708
vt 0.867603 0.939162
vt 0.851149 0.939162
vt 0.867603 0.955616
vt 0.947595 0.939162
vt 0.947595 0.955616
vt 0.964048 0.939162
vt 0.947595 0.922708
vt 0.964048 0.922708
vt 0.947595 0.906255
vt 0.867603 0.906255
vt 0.601512 0.963145
vt 0.617966 0.963145
vt 0.617966 0.979599
vt 0.601512 0.979599
vt 0.617966 0.996053
vt 0.697958 0.979599
vt 0.697958 0.996053
vt 0.714411 0.979599
vt 0.697958 0.963145
vt 0.714411 0.963145
vt 0.697958 0.946692
vt 0.617966 0.946692
vn 1.000000 0.000000 0.000000
vn 1.000000 0.000000 0.000000
vn 1.000000 0.000000 0.000000
vn 1.000000 0.000000 0.000000
vn 0.000000 1.000000 0.000000
vn 0.000000 1.000000 0.000000
vn 0.000000 1.000000 0.000000
vn 0.000000 1.000000 0.000000
vn -1.000000 0.000000 0.000000
vn -1.000000 0.000000 0.000000
vn -1.000000 0.000000 0.000000
vn -1.000000 0.000000 0.000000
vn 0.000000 -1.000000 0.000000
vn 0.000000 -1.000000 0.000000
vn 0.000000 -1.000000 0.000000
vn 0.000000 -1.000000 0.000000
vn 0.000000 0.000000 -1.000000
vn 0.000000 0.000000 -1.000000
vn 0.000000 0.000000 -1.000000
vn 0.000000 0.000000 -1.000000
vn 0.000000 0.000000 1.000000
vn 0.000000 0.000000 1.000000
vn 0.000000 0.000000 1.000000
vn 0.000000 0.000000 1.000000
vn 1.000000 0.000000 0.000000
vn 1.000000 0.000000 0.000000
vn 1.000000 0.000000 0.000000
vn 1.000000 0.000000 0.000000
vn -1.000000 0.000000 0.000000
vn -1.000000 0.000000 0.000000
vn -1.000000 0.000000 0.000000
vn -1.000000 0.000000 0.000000
vn 0.000000 0.000000 -1.000000
vn 0.000000 0.000000 -1.000000
vn 0.000000 0.000000 -1.000000
vn 0.000000 0.000000 -1.000000
vn 0.000000 0.000000 1.000000
vn 0.000000 0.000000 1.000000
vn 0.000000 0.000000 1.000000
vn 0.000000 0.000000 1.000000
vn 1.000000 0.000000 0.000000
vn 1.000000 0.000000 0.000000
vn 1.000000 0.000000 0.000000
vn 1.000000 0.000000 0.000000
vn 0.000000 1.000000 0.000000
vn 0.000000 1.000000 0.000000
vn 0.000000 1.000000 0.000000
vn 0.000000 1.000000 0.000000
vn -1.000000 0.000000 0.000000
vn -1.000000 0.000000 0.000000
vn -1.000000 0.000000 0.000000
vn -1.000000 0.000000 0.000000
vn 0.000011 0.000000 -1.000000
vn 0.000011 0.000000 -1.000000
vn 0.000011 0.000000 -1.000000
vn 0.000011 0.000000 -1.000000
vn 0.000000 0.000000 1.000000
vn 0.000000 0.000000 1.000000
vn 0.000000 0.000000 1.000000
vn 0.000000 0.000000 1.000000
vn 1.000000 0.000000 0.000000
vn 1.000000 0.000000 0.000000
vn 1.000000 0.000000 0.000000
vn 1.000000 0.000000 0.000000
vn 0.000000 1.000000 0.000000
vn 0.000000 1.000000 0.000000
vn 0.000000 1.000000 0.000000
vn 0.000000 1.000000 0.000000
vn -1.000000 0.000000 0.000000
vn -1.000000 0.000000 0.000000
vn -1.000000 0.000000 0.000000
vn -1.000000 0.000000 0.000000
vn 0.000000 -1.000000 0.000000
vn 0.000000 -1.000000 0.000000
vn 0.000000 -1.000000 0.000000
vn 0.000000 -1.000000 0.000000
vn 0.000000 0.000000 -1.000000
vn 0.000000 0.000000 -1.000000
vn 0.000000 0.000000 -1.000000
vn 0.000000 0.000000 -1.000000
vn 1.000000 0.000000 0.000000
vn 1.000000 0.000000 0.000000
vn 1.000000 0.000000 0.000000
vn 1.000000 0.000000 0.000000
vn 0.000000 1.000000 0.000000
vn 0.000000 1.000000 0.000000
vn 0.000000 1.000000 0.000000
vn 0.000000 1.000000 0.000000
vn -1.000000 0.000000 0.000000
vn -1.000000 0.000000 0.000000
vn -1.000000 0.000000 0.000000
vn -1.000000 0.000000 0.000000
vn 0.000000 -1.000000 0.000000
vn 0.000000 -1.000000 0.000000
vn 0.000000 -1.000000 0.000000
vn 0.000000 -1.000000 0.000000
vn 0.000000 0.000000 -1.000000
vn 0.000000 0.000000 -1.000000
vn 0.000000 0.000000 -1.000000
vn 0.000000 0.000000 -1.000000
vn 1.000000 0.000000 0.000000
vn 1.000000 0.000000 0.000000
vn 1.000000 0.000000 0.000000
vn 1.000000 0.000000 0.000000
vn 0.000000 1.000000 0.000000
vn 0.000000 1.000000 0.000000
vn 0.000000 1.000000 0.000000
vn 0.000000 1.000000 0.000000
vn -1.000000 0.000000 0.000000
vn -1.000000 0.000000 0.000000
vn -1.000000 0.000000 0.000000
vn -1.000000 0.000000 0.000000
vn 0.000000 -1.000000 0.000000
vn 0.000000 -1.000000 0.000000
vn 0.000000 -1.000000 0.000000
vn 0.000000 -1.000000 0.000000
vn 0.000000 0.000000 -1.000000
vn 0.000000 0.000000 -1.000000
vn 0.000000 0.000000 -1.000000
vn 0.000000 0.000000 -1.000000
vn 1.000000 0.000000 0.000000
vn 1.000000 0.000000 0.000000
vn 1.000000 0.000000 0.000000
vn 1.000000 0.000000 0.000000
vn 0.000000 1.000000 0.000000
vn 0.000000 1.000000 0.000000
vn 0.000000 1.000000 0.000000
vn 0.000000 1.000000 0.000000
vn -1.000000 0.000000 0.000000
vn -1.000000 0.000000 0.000000
vn -1.000000 0.000000 0.000000
vn -1.000000 0.000000 0.000000
vn 0.000000 -1.000000 0.000000
vn 0.000000 -1.000000 0.000000
vn 0.000000 -1.000000 0.000000
vn 0.000000 -1.000000 0.000000
vn 0.000000 0.000000 -1.000000
vn 0.000000 0.000000 -1.000000
vn 0.000000 0.000000 -1.000000
vn 0.000000 0.000000 -1.000000
f 1/1/1 2/2/2 3/4/3
f 3/4/3 2/2/2 4/3/4
f 3/4/5 4/3/6 5/5/7
f 5/5/7 4/3/6 6/6/8
f 5/5/9 6/6/10 7/8/11
f 7/8/11 6/6/10 8/7/12
f 7/16/13 8/13/14 1/9/15
f 1/9/15 8/13/14 2/10/16
f 2/11/17 8/12/18 4/3/19
f 4/3/19 8/12/18 6/6/20
f 7/15/21 1/14/22 5/5/23
f 5/5/23 1/14/22 3/4/24
f 9/17/25 10/18/26 11/20/27
f 11/20/27 10/18/26 12/19/28
f 13/21/29 14/22/30 15/24/31
f 15/24/31 14/22/30 16/23/32
f 10/25/33 16/23/34 12/26/35
f 12/26/35 16/23/34 14/22/36
f 15/27/37 9/17/38 13/28/39
f 13/28/39 9/17/38 11/20/40
f 17/29/41 18/30/42 19/32/43
f 19/32/43 18/30/42 20/31/44
f 19/33/45 20/34/46 21/36/47
f 21/36/47 20/34/46 22/35/48
f 21/36/49 22/35/50 23/38/51
f 23/38/51 22/35/50 24/37/52
f 18/30/53 24/37/54 20/31/55
f 20/31/55 24/37/54 22/35/56
f 23/38/57 17/39/58 21/36/59
f 21/36/59 17/39/58 19/40/60
f 25/41/61 26/42/62 27/44/63
f 27/44/63 26/42/62 28/43/64
f 27/45/65 28/43/66 29/47/67
f 29/47/67 28/43/66 30/46/68
f 29/48/69 30/46/70 31/50/71
f 31/50/71 30/46/70 32/49/72
f 31/51/73 32/49/74 25/52/75
f 25/52/75 32/49/74 26/42/76
f 26/42/77 32/49/78 28/43/79
f 28/43/79 32/49/78 30/46/80
f 33/53/81 34/54/82 35/56/83
f 35/56/83 34/54/82 36/55/84
f 35/57/85 36/55/86 37/59/87
f 37/59/87 36/55/86 38/58/88
f 37/60/89 38/58/90 39/62/91
f 39/62/91 38/58/90 40/61/92
f 39/63/93 40/61/94 33/64/95
f 33/64/95 40/61/94 34/54/96
f 34/54/97 40/61/98 36/55/99
f 36/55/99 40/61/98 38/58/100
f 41/65/101 42/66/102 43/68/103
f 43/68/103 42/66/102 44/67/104
f 43/69/105 44/67/106 45/71/107
f 45/71/107 44/67/106 46/70/108
f 45/72/109 46/70/110 47/74/111
f 47/74/111 46/70/110 48/73/112
f 47/75/113 48/73/114 41/76/115
f 41/76/115 48/73/114 42/66/116
f 42/66/117 48/73/118 44/67/119
f 44/67/119 48/73/118 46/70/120
f 49/77/121 50/78/122 51/80/123
f 51/80/123 50/78/122 52/79/124
f 51/81/125 52/79/126 53/83/127
f 53/83/127 52/79/126 54/82/128
f 53/84/129 54/82/130 55/86/131
f 55/86/131 54/82/130 56/85/132
f 55/87/133 56/85/134 49/88/135
f 49/88/135 56/85/134 50/78/136
f 50/78/137 56/85/138 52/79/139
f 52/79/139 56/85/138 54/82/140
