# This file uses centimeters as units for non-parametric coordinates.

v 0.990697 0.015000 -0.644374
v 1.249346 0.015000 1.430463
v 0.990697 0.409207 -0.644374
v 1.336610 0.429413 1.440816
v 0.235635 0.449995 -0.578314
v 0.199370 0.429413 1.534790
v 0.235635 0.015000 -0.578314
v 0.283511 0.015000 1.509441
v 1.082981 0.335062 0.410430
v 0.327918 0.335062 0.476489
v 0.327918 0.015000 0.476489
v 1.082981 0.015000 0.410430
v 1.150802 0.360649 0.908714
v 0.292660 0.327868 0.899113
v 0.237535 0.015000 0.983930
v 1.193801 0.015000 0.904952
v 1.046988 0.419839 -0.000965
v 0.291926 0.419839 0.065094
v 0.291926 0.015000 0.065094
v 1.046988 0.015000 -0.000965
v 0.587246 0.015000 1.825499
v 1.000185 0.015000 1.789372
v 0.555210 0.280112 1.910860
v 1.046557 0.280112 1.867873
v 0.939105 0.451415 0.423017
v 0.903112 0.586555 0.011622
v 0.838602 0.536192 -0.725736
v 0.838602 0.015000 -0.725736
v 0.903112 0.015000 0.011622
v 0.939105 0.015000 0.423017
v 0.997562 0.015000 0.920001
v 1.043538 0.015000 1.445513
v 0.779851 0.015000 1.808649
v 0.784387 0.280112 1.890810
v 1.002483 0.648222 1.417222
v 1.019897 0.491509 0.835488
v 0.448601 0.451415 0.465931
v 0.412609 0.586555 0.054536
v 0.348098 0.536192 -0.682822
v 0.348098 0.015000 -0.682822
v 0.412609 0.015000 0.054536
v 0.448601 0.015000 0.465931
v 0.411136 0.015000 0.971306
v 0.457112 0.015000 1.496818
v 0.487366 0.648222 1.462289
v 0.436258 0.491509 0.886550
v 0.818091 0.821819 -0.122214
v 0.778757 0.821819 -0.571803
v 0.473098 0.821819 -0.092031
v 0.433764 0.821819 -0.541620
v 0.818091 1.350041 -0.122214
v 0.778757 1.350041 -0.571803
v 0.473098 1.350041 -0.092031
v 0.433764 1.350041 -0.541620
vt 0.282998 0.691958
vt 0.645543 0.003921
vt 0.282661 0.743961
vt 0.580856 0.244162
vt 0.192060 0.250383
vt 0.149704 0.240905
vt 0.660377 0.012649
vt 0.663383 0.077022
vt 0.648988 0.077694
vt 0.665305 0.118183
vt 0.674350 0.167933
vt 0.163723 0.178256
vt 0.267567 0.731192
vt 0.267822 0.691860
vt 0.542397 0.252408
vt 0.203142 0.187077
vt 0.654725 0.168639
vt 0.527900 0.189859
vt 0.650910 0.118855
vt 0.567397 0.181391
vt 0.172687 0.138199
vt 0.677759 0.220550
vt 0.531710 0.263002
vt 0.657180 0.221217
vt 0.511372 0.192119
vt 0.183743 0.088789
vt 0.651465 0.255322
vt 0.527565 0.147950
vt 0.634255 0.256126
vt 0.746835 0.003167
vt 0.745847 0.077013
vt 0.091189 0.951774
vt 0.064859 0.957054
vt 0.816858 0.191051
vt 0.647638 0.920906
vt 0.331938 0.692276
vt 0.331601 0.744278
vt 0.343160 0.692348
vt 0.745295 0.118215
vt 0.736509 0.168010
vt 0.735805 0.220640
vt 0.759879 0.254767
vt 0.734622 0.012414
vt 0.733760 0.076852
vt 0.733209 0.118053
vt 0.767749 0.189658
vt 0.768917 0.148470
vt 0.818026 0.149862
vt 0.766977 0.048112
vt 0.639672 0.944560
vt 0.342878 0.735750
vt 0.322869 0.772722
vt 0.288447 0.772498
vt 0.719149 0.167522
vt 0.718445 0.220152
vt 0.745429 0.254574
vt 0.090168 0.910584
vt 0.063645 0.908044
vt 0.090644 0.929796
vt 0.064211 0.930904
vt 0.823650 0.108303
vt 0.765216 0.106646
vt 0.322527 0.825426
vt 0.605258 0.945316
vt 0.598709 0.921979
vt 0.288105 0.825202
vt 0.928490 0.756322
vt 0.851277 0.756322
vt 0.851277 0.918367
vt 0.928490 0.918367
vt 0.515950 0.149156
vt 0.503410 0.109753
vt 0.514646 0.099872
vt 0.548446 0.093008
vt 0.558791 0.141254
vt 0.475952 0.056277
vt 0.496806 0.049398
vt 0.537453 0.041739
vt 0.793751 0.003441
vt 0.502439 0.004611
vt 0.529945 0.006724
vt 0.500624 0.253959
vt 0.491219 0.210097
vt 0.449090 0.265009
vt 0.439685 0.221147
vt 0.212359 0.103865
vt 0.203851 0.145173
vt 0.195193 0.037620
vt 0.236097 0.044181
vt 0.202080 0.006845
vt 0.229754 0.004310
vt 0.219145 0.191738
vt 0.214951 0.148736
vt 0.198176 0.262437
vt 0.819823 0.002677
vt 0.255823 0.056008
vt 0.228019 0.108653
vt 0.238860 0.211135
vt 0.229064 0.254912
vt 0.290293 0.222644
vt 0.280497 0.266421
vt 0.640828 0.997253
vt 0.606414 0.998008
vt 0.818556 0.049832
vt 0.770507 0.001992
vn 0.725513 -0.494257 -0.478896
vn 0.898960 0.357876 -0.252580
vn 0.704416 -0.707107 -0.061628
vn 0.913709 0.404535 -0.038579
vn 0.728625 0.476828 -0.491671
vn 0.644941 0.751013 0.141534
vn 0.898960 0.357876 -0.252580
vn 0.913709 0.404535 -0.038579
vn -0.933938 0.349012 -0.077134
vn -0.815482 -0.486299 -0.313851
vn -0.917182 0.379116 0.122674
vn -0.704416 -0.707107 0.061628
vn 0.141845 -0.707107 -0.692734
vn 0.725513 -0.494257 -0.478896
vn 0.000000 -1.000000 0.000000
vn 0.704416 -0.707107 -0.061628
vn 0.644325 0.144615 0.750954
vn 0.073850 0.401416 0.912914
vn 0.409894 -0.667630 0.621496
vn 0.051698 -0.805076 0.590915
vn 0.728625 0.476828 -0.491671
vn 0.898960 0.357876 -0.252580
vn 0.141845 -0.707107 -0.692734
vn 0.725513 -0.494257 -0.478896
vn 0.408349 0.912823 0.002157
vn 0.389257 0.898825 -0.201478
vn 0.921648 0.383299 -0.060393
vn 0.930896 0.330046 -0.156535
vn -0.696726 -0.716205 -0.040302
vn -0.949311 0.314318 -0.003654
vn -0.711520 -0.702641 -0.005964
vn -0.931844 0.358332 0.057140
vn 0.699160 -0.705078 -0.118496
vn -0.000000 -1.000000 -0.000000
vn 0.714138 -0.695578 -0.078607
vn -0.000000 -1.000000 -0.000000
vn 0.930896 0.330046 -0.156535
vn 0.699160 -0.705078 -0.118496
vn 0.921648 0.383299 -0.060393
vn 0.714138 -0.695578 -0.078607
vn 0.356976 0.929767 0.090005
vn 0.905179 0.414522 0.093928
vn -0.593346 -0.779154 0.202137
vn -0.874740 0.389233 0.288664
vn 0.623237 -0.776757 0.090693
vn 0.000000 -1.000000 0.000000
vn 0.905179 0.414522 0.093928
vn 0.623237 -0.776757 0.090693
vn 0.409894 -0.667630 0.621496
vn 0.051698 -0.805076 0.590915
vn -0.295745 -0.667630 0.683231
vn -0.515236 0.131812 0.846851
vn -0.593346 -0.779154 0.202137
vn -0.874740 0.389233 0.288664
vn 0.073850 0.401416 0.912914
vn 0.644325 0.144615 0.750954
vn 0.905179 0.414522 0.093928
vn 0.644325 0.144615 0.750954
vn 0.623237 -0.776757 0.090693
vn 0.409894 -0.667630 0.621496
vn -0.630144 0.733228 0.255531
vn -0.397592 0.916298 0.048157
vn 0.781756 0.287179 -0.553522
vn -0.865997 0.287179 -0.409362
vn 0.865997 0.287179 0.409362
vn -0.781756 0.287179 0.553522
vn -0.287043 -0.707107 -0.646225
vn -0.813134 0.470043 -0.343326
vn -0.333444 0.928450 0.163692
vn -0.387953 0.911194 -0.138631
vn -0.917182 0.379116 0.122674
vn -0.931844 0.358332 0.057140
vn -0.813134 0.470043 -0.343326
vn -0.933938 0.349012 -0.077134
vn -0.815482 -0.486299 -0.313851
vn -0.933938 0.349012 -0.077134
vn -0.287043 -0.707107 -0.646225
vn 0.000000 -1.000000 0.000000
vn -0.815482 -0.486299 -0.313851
vn -0.704416 -0.707107 0.061628
vn -0.000000 -1.000000 -0.000000
vn -0.711520 -0.702641 -0.005964
vn -0.696726 -0.716205 -0.040302
vn -0.000000 -1.000000 -0.000000
vn 0.000000 -1.000000 0.000000
vn -0.593346 -0.779154 0.202137
vn 0.051698 -0.805076 0.590915
vn -0.295745 -0.667630 0.683231
vn -0.515236 0.131812 0.846851
vn -0.295745 -0.667630 0.683231
vn -0.874740 0.389233 0.288664
vn -0.515236 0.131812 0.846851
vn -0.949311 0.314318 -0.003654
vn 0.728625 0.476828 -0.491671
vn 0.883177 0.213498 -0.417632
vn 0.644941 0.751013 0.141534
vn 0.942340 0.226510 0.246351
vn 0.644941 0.751013 0.141534
vn 0.942340 0.226510 0.246351
vn -0.630144 0.733228 0.255531
vn -0.862295 0.242499 0.444569
vn -0.862295 0.242499 0.444569
vn -0.908027 0.251415 -0.335078
vn -0.630144 0.733228 0.255531
vn -0.813134 0.470043 -0.343326
vn -0.908027 0.251415 -0.335078
vn 0.883177 0.213498 -0.417632
vn 0.781756 0.287179 -0.553522
vn 0.865997 0.287179 0.409362
vn -0.865997 0.287179 -0.409362
vn 0.781756 0.287179 -0.553522
vn -0.862295 0.242499 0.444569
vn 0.942340 0.226510 0.246351
vn -0.781756 0.287179 0.553522
vn 0.865997 0.287179 0.409362
vn -0.865997 0.287179 -0.409362
vn -0.781756 0.287179 0.553522
f 1/4/1 3/15/2 20/20/3
f 20/20/3 3/15/2 17/18/4
f 27/23/5 26/25/6 3/15/7
f 3/15/7 26/25/6 17/18/8
f 5/5/9 7/6/10 18/16/11
f 18/16/11 7/6/10 19/12/12
f 28/2/13 1/7/14 29/9/15
f 29/9/15 1/7/14 20/8/16
f 24/33/17 34/60/18 22/32/19
f 22/32/19 34/60/18 33/59/20
f 27/3/21 3/13/22 28/1/23
f 28/1/23 3/13/22 1/14/24
f 25/71/25 36/72/26 9/28/27
f 9/28/27 36/72/26 13/73/28
f 15/26/29 14/86/30 11/21/31
f 11/21/31 14/86/30 10/87/32
f 16/11/33 31/17/34 12/10/35
f 12/10/35 31/17/34 30/19/36
f 13/73/37 16/74/38 9/28/39
f 9/28/39 16/74/38 12/75/40
f 36/72/26 35/76/41 13/73/28
f 13/73/28 35/76/41 4/77/42
f 15/26/29 8/88/43 14/86/30
f 14/86/30 8/88/43 6/89/44
f 2/22/45 32/24/46 16/11/33
f 16/11/33 32/24/46 31/17/34
f 4/77/47 2/78/48 13/73/37
f 13/73/37 2/78/48 16/74/38
f 26/25/6 25/71/25 17/18/8
f 17/18/8 25/71/25 9/28/27
f 11/21/31 10/87/32 19/12/12
f 19/12/12 10/87/32 18/16/11
f 20/8/16 12/10/35 29/9/15
f 29/9/15 12/10/35 30/19/36
f 17/18/4 9/28/39 20/20/3
f 20/20/3 9/28/39 12/75/40
f 2/22/45 22/27/49 32/24/46
f 32/24/46 22/27/49 33/29/50
f 21/90/51 23/91/52 8/88/53
f 8/88/53 23/91/52 6/89/54
f 34/79/55 24/95/56 35/104/41
f 35/76/41 24/80/56 4/77/42
f 4/77/57 24/80/58 2/78/59
f 2/78/59 24/80/58 22/81/60
f 26/34/6 38/46/61 25/48/25
f 25/48/25 38/46/61 37/47/62
f 52/67/63 54/70/64 51/68/65
f 51/68/65 54/70/64 53/69/66
f 40/36/67 39/37/68 28/1/23
f 28/1/23 39/37/68 27/3/21
f 45/49/69 34/79/55 35/104/41
f 36/61/26 46/62/70 35/104/41
f 35/104/41 46/62/70 45/49/69
f 25/48/25 37/47/62 36/61/26
f 36/61/26 37/47/62 46/62/70
f 38/92/61 18/16/71 37/93/62
f 37/93/62 18/16/71 10/87/72
f 39/94/73 5/5/74 38/92/61
f 38/92/61 5/5/74 18/16/71
f 7/38/75 5/51/76 40/36/67
f 40/36/67 5/51/76 39/37/68
f 40/30/77 41/31/78 7/43/79
f 7/43/79 41/31/78 19/44/80
f 42/39/81 11/45/82 41/31/78
f 41/31/78 11/45/82 19/44/80
f 15/54/83 11/45/82 43/40/84
f 43/40/84 11/45/82 42/39/81
f 44/41/85 8/55/86 43/40/84
f 43/40/84 8/55/86 15/54/83
f 33/42/87 21/56/88 44/41/85
f 44/41/85 21/56/88 8/55/86
f 23/58/89 21/57/90 34/60/18
f 34/60/18 21/57/90 33/59/20
f 6/89/91 23/91/92 45/96/69
f 45/49/69 23/105/92 34/79/55
f 46/97/70 14/86/93 45/96/69
f 45/96/69 14/86/93 6/89/91
f 37/93/62 10/87/72 46/97/70
f 46/97/70 10/87/72 14/86/93
f 27/23/94 48/82/95 26/25/96
f 26/25/96 48/82/95 47/83/97
f 26/35/98 47/50/99 38/65/100
f 38/65/100 47/50/99 49/64/101
f 49/98/102 50/99/103 38/92/104
f 38/92/104 50/99/103 39/94/105
f 39/37/68 50/52/106 27/3/21
f 27/3/21 50/52/106 48/53/107
f 48/82/95 52/84/108 47/83/97
f 47/83/97 52/84/108 51/85/109
f 50/52/106 54/63/110 48/53/107
f 48/53/107 54/63/110 52/66/111
f 49/64/112 47/50/113 53/103/114
f 53/103/114 47/50/113 51/102/115
f 50/99/103 49/98/102 54/101/116
f 54/101/116 49/98/102 53/100/117
