# This file uses centimeters as units for non-parametric coordinates.

v -75.000000 48.769043 52.460865
v -68.164589 48.769043 52.460865
v -75.000000 49.397507 52.460865
v -68.164589 49.397507 52.460865
v -75.000000 49.397507 27.567852
v -68.164589 49.397507 27.567852
v -75.000000 48.769043 27.567852
v -68.164589 48.769043 27.567852
v -75.000000 45.698143 51.759769
v -74.165550 45.698143 51.759769
v -75.000000 48.769043 51.759769
v -72.348709 48.769043 51.759769
v -75.000000 48.769043 51.252361
v -72.348709 48.769043 51.252361
v -75.000000 45.698143 51.252361
v -74.165550 45.698143 51.252361
v -75.000000 45.698143 28.804485
v -74.165550 45.698143 28.804485
v -75.000000 48.769043 28.804485
v -72.348709 48.769043 28.804485
v -75.000000 48.769043 28.297077
v -72.348709 48.769043 28.297077
v -75.000000 45.698143 28.297077
v -74.165550 45.698143 28.297077
v -75.000000 40.994896 52.460865
v -68.164589 40.994896 52.460865
v -75.000000 41.623360 52.460865
v -68.164589 41.623360 52.460865
v -75.000000 41.623360 27.567852
v -68.164589 41.623360 27.567852
v -75.000000 40.994896 27.567852
v -68.164589 40.994896 27.567852
v -75.000000 37.923996 51.759769
v -74.165550 37.923996 51.759769
v -75.000000 40.994896 51.759769
v -72.348709 40.994896 51.759769
v -75.000000 40.994896 51.252361
v -72.348709 40.994896 51.252361
v -75.000000 37.923996 51.252361
v -74.165550 37.923996 51.252361
v -75.000000 37.923996 28.804485
v -74.165550 37.923996 28.804485
v -75.000000 40.994896 28.804485
v -72.348709 40.994896 28.804485
v -75.000000 40.994896 28.297077
v -72.348709 40.994896 28.297077
v -75.000000 37.923996 28.297077
v -74.165550 37.923996 28.297077
v -75.000000 33.322193 52.460865
v -68.164589 33.322193 52.460865
v -75.000000 33.950657 52.460865
v -68.164589 33.950657 52.460865
v -75.000000 33.950657 27.567852
v -68.164589 33.950657 27.567852
v -75.000000 33.322193 27.567852
v -68.164589 33.322193 27.567852
v -75.000000 30.251293 51.759769
v -74.165550 30.251293 51.759769
v -75.000000 33.322193 51.759769
v -72.348709 33.322193 51.759769
v -75.000000 33.322193 51.252361
v -72.348709 33.322193 51.252361
v -75.000000 30.251293 51.252361
v -74.165550 30.251293 51.252361
v -75.000000 30.251293 28.804485
v -74.165550 30.251293 28.804485
v -75.000000 33.322193 28.804485
v -72.348709 33.322193 28.804485
v -75.000000 33.322193 28.297077
v -72.348709 33.322193 28.297077
v -75.000000 30.251293 28.297077
v -74.165550 30.251293 28.297077
vt 0.353456 0.587969
vt 0.353456 0.677042
vt 0.345267 0.677042
vt 0.345267 0.587969
vt 0.686030 0.587969
vt 0.686030 0.677042
vt 0.677841 0.677042
vt 0.677840 0.587969
vt 0.353456 0.774304
vt 0.353456 0.685231
vt 0.677840 0.774304
vt 0.677840 0.579779
vt 0.677840 0.685231
vt 0.353456 0.579779
vt 0.097548 0.024556
vt 0.141892 0.058467
vt 0.141892 0.263432
vt 0.000998 0.187749
vt 0.330604 0.214457
vt 0.186387 0.291925
vt 0.172392 0.263878
vt 0.314958 0.187320
vt 0.174077 0.057814
vt 0.216703 0.025193
vt 0.155899 0.032273
vt 0.196827 0.000975
vt 0.243487 0.008938
vt 0.341762 0.171098
vt 0.435949 0.024556
vt 0.480293 0.058467
vt 0.480293 0.263432
vt 0.339398 0.187749
vt 0.669004 0.214457
vt 0.524788 0.291925
vt 0.510792 0.263878
vt 0.653358 0.187320
vt 0.512477 0.057814
vt 0.555103 0.025193
vt 0.494299 0.032273
vt 0.535228 0.000975
vt 0.581887 0.008938
vt 0.680162 0.171098
vt 0.009188 0.754234
vt 0.009188 0.843307
vt 0.000998 0.843307
vt 0.000998 0.754234
vt 0.009188 0.940570
vt 0.009188 0.851497
vt 0.333572 0.851497
vt 0.333572 0.940570
vt 0.341761 0.754234
vt 0.341762 0.843307
vt 0.333572 0.843307
vt 0.333572 0.754234
vt 0.009188 0.746045
vt 0.333572 0.746045
vt 0.754789 0.079326
vt 0.799133 0.113237
vt 0.799133 0.318202
vt 0.658238 0.242519
vt 0.987844 0.269227
vt 0.843628 0.346695
vt 0.829632 0.318648
vt 0.972198 0.242090
vt 0.831317 0.112584
vt 0.873943 0.079963
vt 0.813139 0.087043
vt 0.854068 0.055745
vt 0.900727 0.063708
vt 0.999002 0.225868
vt 0.273594 0.251460
vt 0.317939 0.285371
vt 0.317939 0.490336
vt 0.177044 0.414653
vt 0.506650 0.441361
vt 0.362434 0.518829
vt 0.348438 0.490782
vt 0.491004 0.414224
vt 0.350123 0.284718
vt 0.392749 0.252097
vt 0.331945 0.259177
vt 0.372874 0.227879
vt 0.419533 0.235842
vt 0.517808 0.398002
vt 0.353456 0.789444
vt 0.353456 0.878517
vt 0.345267 0.878517
vt 0.345267 0.789444
vt 0.353456 0.975780
vt 0.353456 0.886707
vt 0.677840 0.886707
vt 0.677840 0.975780
vt 0.686030 0.789444
vt 0.686030 0.878517
vt 0.677841 0.878517
vt 0.677840 0.789444
vt 0.353456 0.781254
vt 0.677840 0.781254
vt 0.592434 0.306230
vt 0.636779 0.340141
vt 0.636779 0.545106
vt 0.495884 0.469424
vt 0.825490 0.496132
vt 0.681273 0.573599
vt 0.667278 0.545552
vt 0.809844 0.468994
vt 0.668963 0.339488
vt 0.711589 0.306867
vt 0.650785 0.313947
vt 0.691714 0.282649
vt 0.738373 0.290612
vt 0.836648 0.452772
vt 0.097548 0.472496
vt 0.141892 0.506407
vt 0.141892 0.711372
vt 0.000998 0.635689
vt 0.330604 0.662397
vt 0.186387 0.739865
vt 0.172392 0.711818
vt 0.314958 0.635260
vt 0.174077 0.505754
vt 0.216703 0.473133
vt 0.155899 0.480213
vt 0.196827 0.448915
vt 0.243487 0.456878
vt 0.341762 0.619038
vn 0.000000 0.000000 1.000000
vn 0.000000 0.000000 1.000000
vn 0.000000 0.000000 1.000000
vn 0.000000 0.000000 1.000000
vn 0.000000 1.000000 0.000000
vn 0.000000 1.000000 0.000000
vn 0.000000 1.000000 0.000000
vn 0.000000 1.000000 0.000000
vn 0.000000 0.000000 -1.000000
vn 0.000000 0.000000 -1.000000
vn 0.000000 0.000000 -1.000000
vn 0.000000 0.000000 -1.000000
vn 0.000000 -1.000000 0.000000
vn 0.000000 -1.000000 0.000000
vn 0.000000 -1.000000 0.000000
vn 0.000000 -1.000000 0.000000
vn 1.000000 0.000000 0.000000
vn 1.000000 0.000000 0.000000
vn 1.000000 0.000000 0.000000
vn 1.000000 0.000000 0.000000
vn -1.000000 0.000000 0.000000
vn -1.000000 0.000000 0.000000
vn -1.000000 0.000000 0.000000
vn -1.000000 0.000000 0.000000
vn 0.000000 0.000000 1.000000
vn 0.000000 0.000000 1.000000
vn 0.000000 0.000000 1.000000
vn 0.000000 0.000000 1.000000
vn 0.000000 1.000000 0.000000
vn 0.000000 1.000000 0.000000
vn 0.000000 1.000000 0.000000
vn 0.000000 1.000000 0.000000
vn 0.000000 0.000000 -1.000000
vn 0.000000 0.000000 -1.000000
vn 0.000000 0.000000 -1.000000
vn 0.000000 0.000000 -1.000000
vn 0.000000 -1.000000 0.000000
vn 0.000000 -1.000000 0.000000
vn 0.000000 -1.000000 0.000000
vn 0.000000 -1.000000 0.000000
vn 0.860658 -0.509184 0.000000
vn 0.860656 -0.509187 0.000000
vn 0.860656 -0.509187 0.000000
vn 0.860655 -0.509189 0.000000
vn -1.000000 0.000000 0.000000
vn -1.000000 0.000000 0.000000
vn -1.000000 0.000000 0.000000
vn -1.000000 0.000000 0.000000
vn 0.000000 0.000000 1.000000
vn 0.000000 0.000000 1.000000
vn 0.000000 0.000000 1.000000
vn 0.000000 0.000000 1.000000
vn 0.000000 1.000000 0.000000
vn 0.000000 1.000000 0.000000
vn 0.000000 1.000000 0.000000
vn 0.000000 1.000000 0.000000
vn 0.000000 0.000000 -1.000000
vn 0.000000 0.000000 -1.000000
vn 0.000000 0.000000 -1.000000
vn 0.000000 0.000000 -1.000000
vn 0.000000 -1.000000 0.000000
vn 0.000000 -1.000000 0.000000
vn 0.000000 -1.000000 0.000000
vn 0.000000 -1.000000 0.000000
vn 0.860655 -0.509188 0.000000
vn 0.860655 -0.509188 0.000000
vn 0.860655 -0.509188 0.000000
vn 0.860655 -0.509189 0.000000
vn -1.000000 0.000000 0.000000
vn -1.000000 0.000000 0.000000
vn -1.000000 0.000000 0.000000
vn -1.000000 0.000000 0.000000
vn 0.000000 0.000000 1.000000
vn 0.000000 0.000000 1.000000
vn 0.000000 0.000000 1.000000
vn 0.000000 0.000000 1.000000
vn 0.000000 1.000000 0.000000
vn 0.000000 1.000000 0.000000
vn 0.000000 1.000000 0.000000
vn 0.000000 1.000000 0.000000
vn 0.000000 0.000000 -1.000000
vn 0.000000 0.000000 -1.000000
vn 0.000000 0.000000 -1.000000
vn 0.000000 0.000000 -1.000000
vn 0.000000 -1.000000 0.000000
vn 0.000000 -1.000000 0.000000
vn 0.000000 -1.000000 0.000000
vn 0.000000 -1.000000 0.000000
vn 1.000000 0.000000 0.000000
vn 1.000000 0.000000 0.000000
vn 1.000000 0.000000 0.000000
vn 1.000000 0.000000 0.000000
vn -1.000000 0.000000 0.000000
vn -1.000000 0.000000 0.000000
vn -1.000000 0.000000 0.000000
vn -1.000000 0.000000 0.000000
vn 0.000000 0.000000 1.000000
vn 0.000000 0.000000 1.000000
vn 0.000000 0.000000 1.000000
vn 0.000000 0.000000 1.000000
vn 0.000000 1.000000 0.000000
vn 0.000000 1.000000 0.000000
vn 0.000000 1.000000 0.000000
vn 0.000000 1.000000 0.000000
vn 0.000000 0.000000 -1.000000
vn 0.000000 0.000000 -1.000000
vn 0.000000 0.000000 -1.000000
vn 0.000000 0.000000 -1.000000
vn 0.000000 -1.000000 0.000000
vn 0.000000 -1.000000 0.000000
vn 0.000000 -1.000000 0.000000
vn 0.000000 -1.000000 0.000000
vn 0.860658 -0.509184 0.000000
vn 0.860656 -0.509187 0.000000
vn 0.860656 -0.509187 0.000000
vn 0.860655 -0.509189 0.000000
vn -1.000000 0.000000 0.000000
vn -1.000000 0.000000 0.000000
vn -1.000000 0.000000 0.000000
vn -1.000000 0.000000 0.000000
vn 0.000000 0.000000 1.000000
vn 0.000000 0.000000 1.000000
vn 0.000000 0.000000 1.000000
vn 0.000000 0.000000 1.000000
vn 0.000000 1.000000 0.000000
vn 0.000000 1.000000 0.000000
vn 0.000000 1.000000 0.000000
vn 0.000000 1.000000 0.000000
vn 0.000000 0.000000 -1.000000
vn 0.000000 0.000000 -1.000000
vn 0.000000 0.000000 -1.000000
vn 0.000000 0.000000 -1.000000
vn 0.000000 -1.000000 0.000000
vn 0.000000 -1.000000 0.000000
vn 0.000000 -1.000000 0.000000
vn 0.000000 -1.000000 0.000000
vn 0.860655 -0.509188 0.000000
vn 0.860655 -0.509188 0.000000
vn 0.860655 -0.509188 0.000000
vn 0.860655 -0.509189 0.000000
vn -1.000000 0.000000 0.000000
vn -1.000000 0.000000 0.000000
vn -1.000000 0.000000 0.000000
vn -1.000000 0.000000 0.000000
vn 0.000000 0.000000 1.000000
vn 0.000000 0.000000 1.000000
vn 0.000000 0.000000 1.000000
vn 0.000000 0.000000 1.000000
vn 0.000000 1.000000 0.000000
vn 0.000000 1.000000 0.000000
vn 0.000000 1.000000 0.000000
vn 0.000000 1.000000 0.000000
vn 0.000000 0.000000 -1.000000
vn 0.000000 0.000000 -1.000000
vn 0.000000 0.000000 -1.000000
vn 0.000000 0.000000 -1.000000
vn 0.000000 -1.000000 0.000000
vn 0.000000 -1.000000 0.000000
vn 0.000000 -1.000000 0.000000
vn 0.000000 -1.000000 0.000000
vn 1.000000 0.000000 0.000000
vn 1.000000 0.000000 0.000000
vn 1.000000 0.000000 0.000000
vn 1.000000 0.000000 0.000000
vn -1.000000 0.000000 0.000000
vn -1.000000 0.000000 0.000000
vn -1.000000 0.000000 0.000000
vn -1.000000 0.000000 0.000000
vn 0.000000 0.000000 1.000000
vn 0.000000 0.000000 1.000000
vn 0.000000 0.000000 1.000000
vn 0.000000 0.000000 1.000000
vn 0.000000 1.000000 0.000000
vn 0.000000 1.000000 0.000000
vn 0.000000 1.000000 0.000000
vn 0.000000 1.000000 0.000000
vn 0.000000 0.000000 -1.000000
vn 0.000000 0.000000 -1.000000
vn 0.000000 0.000000 -1.000000
vn 0.000000 0.000000 -1.000000
vn 0.000000 -1.000000 0.000000
vn 0.000000 -1.000000 0.000000
vn 0.000000 -1.000000 0.000000
vn 0.000000 -1.000000 0.000000
vn 0.860658 -0.509184 0.000000
vn 0.860656 -0.509187 0.000000
vn 0.860656 -0.509187 0.000000
vn 0.860655 -0.509189 0.000000
vn -1.000000 0.000000 0.000000
vn -1.000000 0.000000 0.000000
vn -1.000000 0.000000 0.000000
vn -1.000000 0.000000 0.000000
vn 0.000000 0.000000 1.000000
vn 0.000000 0.000000 1.000000
vn 0.000000 0.000000 1.000000
vn 0.000000 0.000000 1.000000
vn 0.000000 1.000000 0.000000
vn 0.000000 1.000000 0.000000
vn 0.000000 1.000000 0.000000
vn 0.000000 1.000000 0.000000
vn 0.000000 0.000000 -1.000000
vn 0.000000 0.000000 -1.000000
vn 0.000000 0.000000 -1.000000
vn 0.000000 0.000000 -1.000000
vn 0.000000 -1.000000 0.000000
vn 0.000000 -1.000000 0.000000
vn 0.000000 -1.000000 0.000000
vn 0.000000 -1.000000 0.000000
vn 0.860655 -0.509188 0.000000
vn 0.860655 -0.509188 0.000000
vn 0.860655 -0.509188 0.000000
vn 0.860655 -0.509189 0.000000
vn -1.000000 0.000000 0.000000
vn -1.000000 0.000000 0.000000
vn -1.000000 0.000000 0.000000
vn -1.000000 0.000000 0.000000
f 1/1/1 2/2/2 3/4/3
f 3/4/3 2/2/2 4/3/4
f 3/9/5 4/10/6 5/11/7
f 5/11/7 4/10/6 6/13/8
f 5/5/9 6/6/10 7/8/11
f 7/8/11 6/6/10 8/7/12
f 7/8/13 8/7/14 1/1/15
f 1/1/15 8/7/14 2/2/16
f 2/2/17 8/7/18 4/10/19
f 4/10/19 8/7/18 6/13/20
f 7/8/21 1/1/22 5/12/23
f 5/12/23 1/1/22 3/14/24
f 9/15/25 10/16/26 11/18/27
f 11/18/27 10/16/26 12/17/28
f 11/19/29 12/20/30 13/22/31
f 13/22/31 12/20/30 14/21/32
f 14/21/33 16/23/34 13/22/35
f 13/22/35 16/23/34 15/24/36
f 15/24/37 16/23/38 9/26/39
f 9/26/39 16/23/38 10/25/40
f 10/16/41 16/23/42 12/17/43
f 12/17/43 16/23/42 14/21/44
f 15/24/45 9/27/46 13/22/47
f 13/22/47 9/27/46 11/28/48
f 17/29/49 18/30/50 19/32/51
f 19/32/51 18/30/50 20/31/52
f 19/33/53 20/34/54 21/36/55
f 21/36/55 20/34/54 22/35/56
f 22/35/57 24/37/58 21/36/59
f 21/36/59 24/37/58 23/38/60
f 23/38/61 24/37/62 17/40/63
f 17/40/63 24/37/62 18/39/64
f 18/30/65 24/37/66 20/31/67
f 20/31/67 24/37/66 22/35/68
f 23/38/69 17/41/70 21/36/71
f 21/36/71 17/41/70 19/42/72
f 25/43/73 26/44/74 27/46/75
f 27/46/75 26/44/74 28/45/76
f 27/47/77 28/48/78 29/50/79
f 29/50/79 28/48/78 30/49/80
f 29/51/81 30/52/82 31/54/83
f 31/54/83 30/52/82 32/53/84
f 31/54/85 32/53/86 25/43/87
f 25/43/87 32/53/86 26/44/88
f 26/44/89 32/53/90 28/48/91
f 28/48/91 32/53/90 30/49/92
f 31/54/93 25/43/94 29/56/95
f 29/56/95 25/43/94 27/55/96
f 33/57/97 34/58/98 35/60/99
f 35/60/99 34/58/98 36/59/100
f 35/61/101 36/62/102 37/64/103
f 37/64/103 36/62/102 38/63/104
f 38/63/105 40/65/106 37/64/107
f 37/64/107 40/65/106 39/66/108
f 39/66/109 40/65/110 33/68/111
f 33/68/111 40/65/110 34/67/112
f 34/58/113 40/65/114 36/59/115
f 36/59/115 40/65/114 38/63/116
f 39/66/117 33/69/118 37/64/119
f 37/64/119 33/69/118 35/70/120
f 41/71/121 42/72/122 43/74/123
f 43/74/123 42/72/122 44/73/124
f 43/75/125 44/76/126 45/78/127
f 45/78/127 44/76/126 46/77/128
f 46/77/129 48/79/130 45/78/131
f 45/78/131 48/79/130 47/80/132
f 47/80/133 48/79/134 41/82/135
f 41/82/135 48/79/134 42/81/136
f 42/72/137 48/79/138 44/73/139
f 44/73/139 48/79/138 46/77/140
f 47/80/141 41/83/142 45/78/143
f 45/78/143 41/83/142 43/84/144
f 49/85/145 50/86/146 51/88/147
f 51/88/147 50/86/146 52/87/148
f 51/89/149 52/90/150 53/92/151
f 53/92/151 52/90/150 54/91/152
f 53/93/153 54/94/154 55/96/155
f 55/96/155 54/94/154 56/95/156
f 55/96/157 56/95/158 49/85/159
f 49/85/159 56/95/158 50/86/160
f 50/86/161 56/95/162 52/90/163
f 52/90/163 56/95/162 54/91/164
f 55/96/165 49/85/166 53/98/167
f 53/98/167 49/85/166 51/97/168
f 57/99/169 58/100/170 59/102/171
f 59/102/171 58/100/170 60/101/172
f 59/103/173 60/104/174 61/106/175
f 61/106/175 60/104/174 62/105/176
f 62/105/177 64/107/178 61/106/179
f 61/106/179 64/107/178 63/108/180
f 63/108/181 64/107/182 57/110/183
f 57/110/183 64/107/182 58/109/184
f 58/100/185 64/107/186 60/101/187
f 60/101/187 64/107/186 62/105/188
f 63/108/189 57/111/190 61/106/191
f 61/106/191 57/111/190 59/112/192
f 65/113/193 66/114/194 67/116/195
f 67/116/195 66/114/194 68/115/196
f 67/117/197 68/118/198 69/120/199
f 69/120/199 68/118/198 70/119/200
f 70/119/201 72/121/202 69/120/203
f 69/120/203 72/121/202 71/122/204
f 71/122/205 72/121/206 65/124/207
f 65/124/207 72/121/206 66/123/208
f 66/114/209 72/121/210 68/115/211
f 68/115/211 72/121/210 70/119/212
f 71/122/213 65/125/214 69/120/215
f 69/120/215 65/125/214 67/126/216
