# This file uses centimeters as units for non-parametric coordinates.

mtllib wall_front.mtl
g default
v -75.000000 0.000000 70.000000
v -75.000000 66.268326 70.000000
v 75.000000 0.000000 70.000000
v 75.000000 66.268326 70.000000
v 21.061707 66.268326 70.000000
v 21.061707 0.000000 70.000000
v -18.786125 66.268326 70.000000
v -18.786125 0.000000 70.000000
v -75.000000 26.430187 70.000000
v -18.786125 26.430187 70.000000
v 21.061707 26.430187 70.000000
v 75.000000 26.430187 70.000000
v -75.000000 58.580742 70.000000
v -18.786125 58.580742 70.000000
v 21.061707 58.580742 70.000000
v 75.000000 58.580742 70.000000
vt 0.000441 0.000998
vt 0.176291 0.000998
vt 0.176290 0.375009
vt 0.000441 0.375009
vt 0.000441 0.640131
vt 0.176290 0.640131
vt 0.176290 0.999002
vt 0.000441 0.999002
vt 0.390200 0.000998
vt 0.390200 0.375009
vt 0.390200 0.640131
vt 0.390200 0.999002
vt 0.441348 0.000998
vt 0.441348 0.375009
vt 0.441348 0.640131
vt 0.441348 0.999002
vn -0.000000 0.000000 -1.000000
vn -0.000000 0.000000 -1.000000
vn -0.000000 0.000000 -1.000000
vn -0.000000 0.000000 -1.000000
vn -0.000000 0.000000 -1.000000
vn -0.000000 0.000000 -1.000000
vn -0.000000 0.000000 -1.000000
vn 0.000000 0.000000 -1.000000
vn 0.000000 0.000000 -1.000000
vn 0.000000 0.000000 -1.000000
vn 0.000000 0.000000 -1.000000
vn 0.000000 0.000000 -1.000000
vn 0.000000 0.000000 -1.000000
vn 0.000000 0.000000 -1.000000
vn 0.000000 0.000000 -1.000000
vn 0.000000 0.000000 -1.000000
s 1
g pPlane3 Walls
usemtl lambert3SG
f 1/1/1 9/2/2 8/4/3
f 8/4/3 9/2/2 10/3/4
f 6/5/5 11/6/6 3/8/7
f 3/8/7 11/6/6 12/7/8
f 8/4/3 10/3/4 6/5/5
f 6/5/5 10/3/4 11/6/6
f 9/2/2 13/9/9 10/3/4
f 10/3/4 13/9/9 14/10/10
f 12/7/8 11/6/6 16/12/11
f 16/12/11 11/6/6 15/11/12
f 13/9/9 2/13/13 14/10/10
f 14/10/10 2/13/13 7/14/14
f 15/11/12 14/10/10 5/15/15
f 5/15/15 14/10/10 7/14/14
f 16/12/11 15/11/12 4/16/16
f 4/16/16 15/11/12 5/15/15
